<svg xmlns="http://www.w3.org/2000/svg" version="1.1" xmlns:xlink="http://www.w3.org/1999/xlink" xmlns:svgjs="http://svgjs.dev/svgjs" width="1438" height="560" preserveAspectRatio="none" viewBox="0 0 1438 560"><g mask="url(&quot;#SvgjsMask1008&quot;)" fill="none"><rect width="1438" height="560" x="0" y="0" fill="#0e2a47"></rect><path d="M36.67 454.32L87.15 454.32L87.15 504.8L36.67 504.8z" stroke="#d3b714"></path><path d="M945 339.03L985.24 339.03L985.24 379.27L945 379.27z" stroke="#037b0b"></path><path d="M132.39 191.76a52.7 52.7 0 1 0 33.2-100.04z" fill="#e73635"></path><path d="M591.7 566.76a27.82 27.82 0 1 0 14.87-53.62z" fill="#037b0b"></path><path d="M1385.32 521.93L1387.86 521.93L1387.86 524.47L1385.32 524.47z" fill="#d3b714"></path><path d="M1121.96 113.27L1151.82 113.27L1151.82 155.87L1121.96 155.87z" fill="#e73635"></path><path d="M93.55 186.94L139.83 186.94L139.83 220.37L93.55 220.37z" stroke="#037b0b"></path><path d="M1421.86 518.78a7.22 7.22 0 1 0 2.94-14.13z" stroke="#e73635"></path><path d="M440.7 323.51a55.41 55.41 0 1 0-87.88 67.5z" stroke="#037b0b"></path><path d="M1372.66 369.13L1415.82 369.13L1415.82 413.43L1372.66 413.43z" fill="#e73635"></path><path d="M458.86 167.07L499.48 167.07L499.48 207.69L458.86 207.69z" fill="#d3b714"></path><path d="M191.46 158.85L200.12 158.85L200.12 182.17L191.46 182.17z" stroke="#d3b714"></path><path d="M1324.06 242.69a26.05 26.05 0 1 0-31.01 41.86z" fill="#d3b714"></path><path d="M305.57 327.84a28.94 28.94 0 1 0 36.35-45.05z" fill="#037b0b"></path><path d="M1320.95 374.51L1359.53 374.51L1359.53 421.75L1320.95 421.75z" stroke="#037b0b"></path><path d="M634.94 492.51L662.31 492.51L662.31 523.04L634.94 523.04z" stroke="#d3b714"></path><path d="M181.69 443.87L228.81 443.87L228.81 490.99L181.69 490.99z" stroke="#037b0b"></path><path d="M619.38 305.26 a10.4 10.4 0 1 0 20.8 0 a10.4 10.4 0 1 0 -20.8 0z" stroke="#e73635"></path><path d="M33.83 153.18a27.79 27.79 0 1 0 35.11-43.09z" fill="#d3b714"></path><path d="M40.99 461.81L89.66 461.81L89.66 510.48L40.99 510.48z" fill="#037b0b"></path><path d="M1416.11 472.43L1457.29 472.43L1457.29 495.23L1416.11 495.23z" fill="#d3b714"></path><path d="M42.79 17.44a1 1 0 1 0 1.92 0.54z" fill="#e73635"></path><path d="M603.89 60.06a39.76 39.76 0 1 0 23.49-75.97z" stroke="#e73635"></path><path d="M1411.79 520.38L1415.39 520.38L1415.39 531.99L1411.79 531.99z" fill="#037b0b"></path><path d="M1264.41 451.7 a43.3 43.3 0 1 0 86.6 0 a43.3 43.3 0 1 0 -86.6 0z" fill="#037b0b"></path><path d="M1210.12 333.43L1212.61 333.43L1212.61 335.92L1210.12 335.92z" stroke="#037b0b"></path><path d="M1049.46 75a39.4 39.4 0 1 0-69.8 36.56z" stroke="#037b0b"></path><path d="M164.75 485.29 a14.22 14.22 0 1 0 28.44 0 a14.22 14.22 0 1 0 -28.44 0z" fill="#037b0b"></path><path d="M206.91 67.81a28.49 28.49 0 1 0 34.24 45.54z" stroke="#d3b714"></path><path d="M647.71 54.68 a51.19 51.19 0 1 0 102.38 0 a51.19 51.19 0 1 0 -102.38 0z" fill="#d3b714"></path><path d="M1283.56 276.89a15.03 15.03 0 1 0 21.46-21.06z" stroke="#037b0b"></path><path d="M928.35 320.67a24.29 24.29 0 1 0-36.49-32.08z" fill="#037b0b"></path><path d="M878.63 13.68a30.97 30.97 0 1 0 60.8-11.82z" stroke="#e73635"></path></g><defs><mask id="SvgjsMask1008"><rect width="1438" height="560" fill="#ffffff"></rect></mask></defs></svg>